<?xml version="1.0" encoding="utf-8"?>
<!-- Generator: Adobe Illustrator 16.0.4, SVG Export Plug-In . SVG Version: 6.00 Build 0)  -->
<!DOCTYPE svg PUBLIC "-//W3C//DTD SVG 1.1//EN" "http://www.w3.org/Graphics/SVG/1.1/DTD/svg11.dtd">
<svg version="1.1" id="Layer_1" xmlns="http://www.w3.org/2000/svg" xmlns:xlink="http://www.w3.org/1999/xlink" x="0px" y="0px"
	 width="24px" height="24px" viewBox="0 0 24 24" enable-background="new 0 0 24 24" xml:space="preserve">
<rect id="bg" fill="#272727" width="24" height="24"/>
<defs>
	<filter id="Adobe_OpacityMaskFilter" filterUnits="userSpaceOnUse" x="3.178" y="3.621" width="17.422" height="17.021">
		<feColorMatrix  type="matrix" values="1 0 0 0 0  0 1 0 0 0  0 0 1 0 0  0 0 0 1 0"/>
	</filter>
</defs>
<mask maskUnits="userSpaceOnUse" x="3.178" y="3.621" width="17.422" height="17.021" id="bars_1_">
	<g filter="url(#Adobe_OpacityMaskFilter)">
		
			<linearGradient id="SVGID_1_" gradientUnits="userSpaceOnUse" x1="452.7529" y1="-32.9014" x2="475.3115" y2="-32.9014" gradientTransform="matrix(0 1 -1 0 -20.8164 -450.001)">
			<stop  offset="0" style="stop-color:#FFFFFF"/>
			<stop  offset="1" style="stop-color:#000000"/>
		</linearGradient>
		<rect x="1.125" y="2.752" fill="url(#SVGID_1_)" width="21.919" height="22.559"/>
	</g>
</mask>
<path id="bars" mask="url(#bars_1_)" fill="#424242" d="M6.905,11.805v0.728c0,0.161-0.167,0.291-0.373,0.291H3.551
	c-0.206,0-0.373-0.13-0.373-0.291v-0.728c0-0.16,0.167-0.291,0.373-0.291h2.981C6.738,11.514,6.905,11.645,6.905,11.805z
	 M6.532,13.479H3.551c-0.206,0-0.373,0.13-0.373,0.291v0.728c0,0.16,0.167,0.291,0.373,0.291h2.981c0.206,0,0.373-0.131,0.373-0.291
	V13.77C6.905,13.608,6.738,13.479,6.532,13.479z M6.532,15.442H3.551c-0.206,0-0.373,0.131-0.373,0.291v0.728
	c0,0.161,0.167,0.291,0.373,0.291h2.981c0.206,0,0.373-0.13,0.373-0.291v-0.728C6.905,15.573,6.738,15.442,6.532,15.442z
	 M11.097,13.479H8.116c-0.206,0-0.373,0.13-0.373,0.291v0.728c0,0.16,0.167,0.291,0.373,0.291h2.981
	c0.206,0,0.373-0.131,0.373-0.291V13.77C11.47,13.608,11.303,13.479,11.097,13.479z M11.097,15.442H8.116
	c-0.206,0-0.373,0.131-0.373,0.291v0.728c0,0.161,0.167,0.291,0.373,0.291h2.981c0.206,0,0.373-0.13,0.373-0.291v-0.728
	C11.47,15.573,11.303,15.442,11.097,15.442z M15.616,9.55h-2.981c-0.206,0-0.373,0.13-0.373,0.291v0.728
	c0,0.16,0.167,0.291,0.373,0.291h2.981c0.206,0,0.373-0.131,0.373-0.291V9.841C15.989,9.68,15.822,9.55,15.616,9.55z M15.616,11.514
	h-2.981c-0.206,0-0.373,0.131-0.373,0.291v0.728c0,0.161,0.167,0.291,0.373,0.291h2.981c0.206,0,0.373-0.13,0.373-0.291v-0.728
	C15.989,11.645,15.822,11.514,15.616,11.514z M15.616,13.479h-2.981c-0.206,0-0.373,0.13-0.373,0.291v0.728
	c0,0.16,0.167,0.291,0.373,0.291h2.981c0.206,0,0.373-0.131,0.373-0.291V13.77C15.989,13.608,15.822,13.479,15.616,13.479z
	 M15.616,3.621h-2.981c-0.206,0-0.373,0.13-0.373,0.291V4.64c0,0.16,0.167,0.291,0.373,0.291h2.981c0.206,0,0.373-0.131,0.373-0.291
	V3.912C15.989,3.751,15.822,3.621,15.616,3.621z M15.616,5.585h-2.981c-0.206,0-0.373,0.131-0.373,0.291v0.728
	c0,0.161,0.167,0.291,0.373,0.291h2.981c0.206,0,0.373-0.13,0.373-0.291V5.876C15.989,5.716,15.822,5.585,15.616,5.585z
	 M15.616,7.549h-2.981c-0.206,0-0.373,0.131-0.373,0.292v0.727c0,0.161,0.167,0.291,0.373,0.291h2.981
	c0.206,0,0.373-0.13,0.373-0.291V7.841C15.989,7.68,15.822,7.549,15.616,7.549z M15.616,15.442h-2.981
	c-0.206,0-0.373,0.131-0.373,0.291v0.728c0,0.161,0.167,0.291,0.373,0.291h2.981c0.206,0,0.373-0.13,0.373-0.291v-0.728
	C15.989,15.573,15.822,15.442,15.616,15.442z M20.228,9.55h-2.981c-0.206,0-0.373,0.13-0.373,0.291v0.728
	c0,0.16,0.167,0.291,0.373,0.291h2.981c0.206,0,0.373-0.131,0.373-0.291V9.841C20.601,9.68,20.434,9.55,20.228,9.55z M20.228,7.658
	h-2.981c-0.206,0-0.373,0.131-0.373,0.291v0.728c0,0.161,0.167,0.291,0.373,0.291h2.981c0.206,0,0.373-0.13,0.373-0.291V7.949
	C20.601,7.789,20.434,7.658,20.228,7.658z M20.228,11.514h-2.981c-0.206,0-0.373,0.131-0.373,0.291v0.728
	c0,0.161,0.167,0.291,0.373,0.291h2.981c0.206,0,0.373-0.13,0.373-0.291v-0.728C20.601,11.645,20.434,11.514,20.228,11.514z
	 M20.228,13.479h-2.981c-0.206,0-0.373,0.13-0.373,0.291v0.728c0,0.16,0.167,0.291,0.373,0.291h2.981
	c0.206,0,0.373-0.131,0.373-0.291V13.77C20.601,13.608,20.434,13.479,20.228,13.479z M20.228,15.442h-2.981
	c-0.206,0-0.373,0.131-0.373,0.291v0.728c0,0.161,0.167,0.291,0.373,0.291h2.981c0.206,0,0.373-0.13,0.373-0.291v-0.728
	C20.601,15.573,20.434,15.442,20.228,15.442z M6.532,17.367H3.551c-0.206,0-0.373,0.131-0.373,0.291v0.728
	c0,0.161,0.167,0.291,0.373,0.291h2.981c0.206,0,0.373-0.13,0.373-0.291v-0.728C6.905,17.498,6.738,17.367,6.532,17.367z
	 M6.532,19.332H3.551c-0.206,0-0.373,0.13-0.373,0.291v0.728c0,0.16,0.167,0.291,0.373,0.291h2.981c0.206,0,0.373-0.131,0.373-0.291
	v-0.728C6.905,19.462,6.738,19.332,6.532,19.332z M11.097,17.367H8.116c-0.206,0-0.373,0.131-0.373,0.291v0.728
	c0,0.161,0.167,0.291,0.373,0.291h2.981c0.206,0,0.373-0.13,0.373-0.291v-0.728C11.47,17.498,11.303,17.367,11.097,17.367z
	 M11.097,19.332H8.116c-0.206,0-0.373,0.13-0.373,0.291v0.728c0,0.16,0.167,0.291,0.373,0.291h2.981
	c0.206,0,0.373-0.131,0.373-0.291v-0.728C11.47,19.462,11.303,19.332,11.097,19.332z M15.616,17.367h-2.981
	c-0.206,0-0.373,0.131-0.373,0.291v0.728c0,0.161,0.167,0.291,0.373,0.291h2.981c0.206,0,0.373-0.13,0.373-0.291v-0.728
	C15.989,17.498,15.822,17.367,15.616,17.367z M15.616,19.332h-2.981c-0.206,0-0.373,0.13-0.373,0.291v0.728
	c0,0.16,0.167,0.291,0.373,0.291h2.981c0.206,0,0.373-0.131,0.373-0.291v-0.728C15.989,19.462,15.822,19.332,15.616,19.332z
	 M20.228,17.367h-2.981c-0.206,0-0.373,0.131-0.373,0.291v0.728c0,0.161,0.167,0.291,0.373,0.291h2.981
	c0.206,0,0.373-0.13,0.373-0.291v-0.728C20.601,17.498,20.434,17.367,20.228,17.367z M20.228,19.332h-2.981
	c-0.206,0-0.373,0.13-0.373,0.291v0.728c0,0.16,0.167,0.291,0.373,0.291h2.981c0.206,0,0.373-0.131,0.373-0.291v-0.728
	C20.601,19.462,20.434,19.332,20.228,19.332z"/>
</svg>
