<?xml version="1.0" encoding="utf-8"?>
<!-- Generator: Adobe Illustrator 15.0.0, SVG Export Plug-In . SVG Version: 6.00 Build 0)  -->
<!DOCTYPE svg PUBLIC "-//W3C//DTD SVG 1.1//EN" "http://www.w3.org/Graphics/SVG/1.1/DTD/svg11.dtd">
<svg version="1.1" id="logo" xmlns="http://www.w3.org/2000/svg" xmlns:xlink="http://www.w3.org/1999/xlink" x="0px" y="0px"
	 width="910px" height="180px" viewBox="0 0 910 180" enable-background="new 0 0 910 180" xml:space="preserve">
<linearGradient id="text_1_" gradientUnits="userSpaceOnUse" x1="543.832" y1="15.939" x2="543.832" y2="139.438">
	<stop  offset="0" style="stop-color:#949699"/>
	<stop  offset="1" style="stop-color:#5A5B5D"/>
</linearGradient>
<path id="text" fill="url(#text_1_)" d="M273.478,127.294h7.184v10.09h-12.145c-7.355,0-10.436-3.077-10.436-10.433V85.729
	c0-13.513-2.051-25.488-18.643-25.488c-14.709,0-27.371,10.094-31.303,24.29c-1.026,3.594-1.368,7.525-1.368,11.632v41.222h-11.631
	V65.203c0-2.396-1.368-3.764-3.764-3.764h-7.185V51.348h11.973c7.185,0,10.435,3.079,10.435,9.579v3.935
	c0,3.423-0.342,6.156-0.342,6.156h0.342c3.078-7.865,14.026-21.721,34.208-21.721c21.381,0,28.909,12.144,28.909,33.354v40.88
	C269.713,126.096,271.083,127.294,273.478,127.294z M361.055,88.978c0,2.053-0.342,5.817-0.342,5.817h-66.025
	c0.342,21.723,15.566,34.21,33.354,34.21c15.736,0,25.828-10.604,25.828-10.604l5.645,8.724c0,0-12.485,12.313-31.987,12.313
	c-25.485,0-44.987-18.476-44.987-44.984c0-28.223,19.332-45.158,42.421-45.158C348.739,49.295,361.055,67.597,361.055,88.978z
	 M349.081,85.558c-0.684-17.789-11.632-26.512-24.29-26.512c-14.198,0-26.683,9.238-29.59,26.512H349.081z M461.465,104.887V61.098
	h21.552v-9.75h-21.552V27.571h-11.463v23.776h-16.763c-8.895,0-10.945,1.539-16.077,9.408l-12.487,19.156
	c-1.197,2.223-2.738,5.132-2.738,5.132h-0.342c0,0-1.54-2.909-2.907-5.132l-12.316-19.156c-5.129-8.041-7.355-9.408-16.079-9.408
	h-6.328v10.092h3.593c3.419,0,5.816,0.686,7.869,3.594l18.643,27.537l-29.933,44.813h13.514l21.039-31.983
	c1.538-2.396,2.907-4.791,2.907-4.791h0.342c0,0,1.368,2.567,2.738,4.791l21.037,31.983h13.687L409.295,92.57l18.646-27.71
	c1.88-2.908,4.445-3.421,8.036-3.749l13.857-0.015v44.985c0,28.735,20.012,31.987,29.933,31.987c2.908,0,4.96-0.344,4.96-0.344
	v-10.433c0,0-1.542,0.341-3.935,0.341C474.292,127.635,461.465,125.072,461.465,104.887z M563.372,49.295
	c0,0-9.142-1.177-14.209-0.306c-9.751,1.672-18.938,9.885-22.873,22.37h-0.341c0,0,0.341-2.223,0.341-5.473v-5.131
	c0-7.355-3.932-10.606-11.631-10.606h-19.841v18.475h6.842c2.396,0,3.766,1.197,3.766,3.763v64.997h21.548v-34.55
	c0-5.132,0.686-9.923,1.885-14.2c3.931-12.999,14.413-18.75,23.649-18.75c5.57,0,10.864,0.792,10.864,0.792V49.295L563.372,49.295z
	 M637.985,119.084h6.843v18.301h-19.502c-8.038,0-11.119-4.447-11.119-9.578c0-2.223,0.178-3.763,0.178-3.763h-0.346
	c0,0-6.67,15.394-26.34,15.394c-15.567,0-29.763-9.75-29.763-27.193c0-27.369,37.627-29.594,51.826-29.594h2.735v-0.684
	c0-12.486-10.982-16.537-22.102-16.537c-3.936,0-11.981,1.392-16.438,5.478c0,0-0.183-21.777,0.096-21.822
	c0,0,6.965-2.323,19.965-2.323c29.08,0,40.203,16.562,40.203,36.062v32.498C634.223,117.714,635.591,119.084,637.985,119.084z
	 M612.845,97.529h-3.768c-11.286,0-29.248,1.541-29.248,13.685c0,5.817,4.276,11.292,13.173,11.292
	c11.632,0,19.843-12.316,19.843-22.922V97.529z M735.489,119.084h6.671v18.301h-20.016c-7.865,0-10.773-3.762-10.773-8.894
	c0-1.882,0-3.249,0-3.249h-0.341c0,0-7.185,14.195-27.199,14.195c-23.609,0-38.826-18.644-38.826-45.67
	c0-27.709,16.589-45.668,39.681-45.668c18.988,0,25.146,10.603,25.146,10.603h0.346c0,0-0.173-2.223-0.173-5.131V38.18
	c0-2.567-1.368-3.766-3.763-3.766h-6.848V15.939h20.7c8.038,0,11.634,3.593,11.634,11.632v87.748
	C731.729,117.714,733.095,119.084,735.489,119.084z M710.513,93.598c0-13.516-7.012-26.856-21.547-26.856
	c-11.978,0-21.896,9.752-21.896,27.026c0,16.592,8.72,27.369,21.547,27.369C699.907,121.139,710.513,112.925,710.513,93.598z
	 M772.094,15.939h-18.814v20.012h18.814V15.939z M773.803,115.318V61.781c0-8.039-3.417-11.632-11.455-11.632h-20.695v18.475h6.838
	c2.395,0,3.763,1.197,3.763,3.763v53.365c0,8.214,3.421,11.632,11.459,11.632h20.701v-18.301h-6.843
	C775.175,119.084,773.803,117.714,773.803,115.318z M881.058,93.768c0,26.855-21.215,45.67-47.896,45.67
	c-26.513,0-47.729-18.813-47.729-45.67c0-26.684,21.216-45.667,47.729-45.667C859.843,48.099,881.058,67.084,881.058,93.768z
	 M859.162,93.768c0-16.08-11.801-27.196-26-27.196c-14.026,0-25.831,11.116-25.831,27.196c0,16.252,11.805,27.195,25.831,27.195
	C847.361,120.963,859.162,110.02,859.162,93.768z M892.987,16.502c5.901,0,10.488,4.587,10.488,10.302
	c0,5.843-4.587,10.367-10.553,10.367c-5.906,0-10.616-4.523-10.616-10.367c0-5.715,4.71-10.302,10.616-10.302H892.987z
	 M892.86,18.574c-4.525,0-7.915,3.708-7.915,8.23c0,4.587,3.39,8.23,8.042,8.23c4.521,0.062,7.852-3.643,7.852-8.23
	c0-4.522-3.33-8.23-7.915-8.23H892.86z M891.288,32.144h-2.386V21.905c0.942-0.189,2.263-0.377,3.958-0.377
	c1.946,0,2.825,0.313,3.58,0.815c0.562,0.441,1.005,1.257,1.005,2.199c0,1.194-0.88,2.073-2.137,2.449v0.127
	c1.01,0.313,1.572,1.129,1.887,2.512c0.312,1.57,0.502,2.198,0.754,2.512h-2.576c-0.312-0.376-0.504-1.255-0.818-2.45
	c-0.186-1.131-0.812-1.632-2.133-1.632h-1.134V32.144L891.288,32.144z M891.352,26.364h1.133c1.321,0,2.386-0.44,2.386-1.506
	c0-0.942-0.688-1.571-2.199-1.571c-0.627,0-1.065,0.062-1.317,0.125v2.952H891.352z"/>
<linearGradient id="mark_1_" gradientUnits="userSpaceOnUse" x1="329.8047" y1="-110.4648" x2="329.8047" y2="-274.2183" gradientTransform="matrix(1 0 0 -1 -246 -100)">
	<stop  offset="0" style="stop-color:#5BCAE8"/>
	<stop  offset="1" style="stop-color:#0DADD2"/>
</linearGradient>
<path id="mark" fill="url(#mark_1_)" d="M114.345,91.84l-16.718,10.221l-6.957-9.951l7.244-10.279L114.345,91.84z M72.786,66.52
	l10.212,14.609l4.135-5.869L72.786,66.52z M82.956,103.061l-9.862,14l13.764-8.416L82.956,103.061z M83.804,174.218
	c-45.218,0-81.876-36.655-81.876-81.876c0-45.219,36.658-81.877,81.876-81.877c45.219,0,81.876,36.659,81.876,81.877
	C165.681,137.562,129.023,174.218,83.804,174.218z M53.706,143.677l72.561-44.362c1.072,0.516,2.271,0.812,3.541,0.812
	c4.522,0,8.188-3.666,8.188-8.188c0-4.522-3.666-8.189-8.188-8.189c-1.194,0-2.324,0.261-3.347,0.72L53.698,40.14
	c-2.544-1.552-5.83-1.106-7.869,1.067c-1.129,1.203-1.707,2.754-1.707,4.313c0,1.255,0.375,2.518,1.136,3.606L75.281,92.08
	l-30.009,42.594c-1.721,2.441-1.489,5.756,0.552,7.936C47.867,144.789,51.158,145.234,53.706,143.677z"/>
</svg>
